<svg width="177" height="53" viewBox="0 0 177 53" fill="none" xmlns="http://www.w3.org/2000/svg">
<path d="M47.4355 8.52469C47.4355 13.2328 51.2521 17.0494 55.9602 17.0494C60.6682 17.0494 64.4849 13.2328 64.4849 8.52469C64.4849 3.81664 60.6682 0 55.9602 0C51.2521 0 47.4355 3.81664 47.4355 8.52469Z" fill="#08AEAD"/>
<path d="M25.9973 34.2253C25.9973 36.5793 27.9056 38.4876 30.2596 38.4876C32.6137 38.4876 34.522 36.5793 34.522 34.2253C34.522 31.8712 32.6137 29.9629 30.2596 29.9629C27.9056 29.9629 25.9973 31.8712 25.9973 34.2253Z" fill="#08AEAD"/>
<path d="M0.485001 17.1759C0.485001 24.238 6.20995 29.9629 13.272 29.9629C20.3341 29.9629 26.0591 24.238 26.0591 17.1759C26.0591 10.1138 20.3341 4.38882 13.272 4.38882C6.20995 4.38882 0.485001 10.1138 0.485001 17.1759Z" fill="#08AEAD"/>
<path d="M6.59033 17.1759C6.59033 20.866 9.58181 23.8575 13.272 23.8575C16.9621 23.8575 19.9536 20.866 19.9536 17.1759C19.9536 13.4857 16.9621 10.4942 13.272 10.4942C9.58181 10.4942 6.59033 13.4857 6.59033 17.1759Z" fill="white"/>
<path fill-rule="evenodd" clip-rule="evenodd" d="M56.9028 9.46753L55.0172 7.58191L30.2595 32.3397L14.2146 16.2948L12.3289 18.1804L30.2595 36.1109L56.9028 9.46753Z" fill="#08AEAD"/>
<path d="M10.5182 17.1759C10.5182 18.6966 11.751 19.9295 13.2718 19.9295C14.7926 19.9295 16.0254 18.6966 16.0254 17.1759C16.0254 15.6551 14.7926 14.4222 13.2718 14.4222C11.751 14.4222 10.5182 15.6551 10.5182 17.1759Z" fill="#08AEAD"/>
<path d="M53.9625 38.3434H50.9854V28.6504H53.9625V31.9322H56.9258V28.6504H59.9029V38.3434H56.9258V34.5216H53.9625V38.3434ZM63.7247 38.3434H60.6507L64.6386 28.595H67.4773L71.4791 38.3434H68.2804L67.5881 36.5294H64.4309L63.7247 38.3434ZM66.0095 32.0014L65.2894 34.3001H66.7157L66.0095 32.0014ZM77.3393 38.3434H72.2158V28.6504H77.1315C78.0362 28.6504 78.7747 28.8627 79.3471 29.2874C79.9287 29.7028 80.2195 30.3167 80.2195 31.1291C80.2195 31.5999 80.0902 31.9922 79.8317 32.3061C79.564 32.6292 79.3055 32.8507 79.0563 32.9707C79.4809 33.0538 79.8917 33.3308 80.2887 33.8016C80.6949 34.2631 80.898 34.8401 80.898 35.5324C80.898 36.3725 80.5702 37.051 79.9148 37.568C79.2594 38.0849 78.4009 38.3434 77.3393 38.3434ZM75.1929 34.3416V35.9479H76.7577C77.0254 35.9479 77.2377 35.8786 77.3946 35.7402C77.5608 35.5925 77.6439 35.3986 77.6439 35.1586C77.6439 34.9186 77.5608 34.7247 77.3946 34.577C77.2285 34.4201 77.0162 34.3416 76.7577 34.3416H75.1929ZM75.1929 30.9629V32.2645H76.7023C76.9054 32.2645 77.0715 32.2045 77.2008 32.0845C77.3393 31.9645 77.4085 31.8168 77.4085 31.6414C77.4085 31.4383 77.3393 31.2768 77.2008 31.1568C77.0715 31.0275 76.9054 30.9629 76.7023 30.9629H75.1929ZM84.4726 38.3434H81.9386V28.6504H84.8188V33.4692L88.5575 28.6504H91.0084V38.3434H88.1559V33.5662L84.4726 38.3434ZM95.4498 38.3434H92.4726V28.6504H99.9362V31.2121H95.4498V38.3434ZM101.656 38.3434H98.5815L102.569 28.595H105.408L109.41 38.3434H106.211L105.519 36.5294H102.362L101.656 38.3434ZM103.94 32.0014L103.22 34.3001H104.647L103.94 32.0014ZM108.338 31.2121V28.6504H116.854V31.2121H114.071V38.3434H111.094V31.2121H108.338ZM120.746 35.1724C121.153 35.6063 121.665 35.8232 122.283 35.8232C122.902 35.8232 123.414 35.6063 123.82 35.1724C124.227 34.7201 124.43 34.1616 124.43 33.4969C124.43 32.823 124.227 32.2691 123.82 31.8353C123.424 31.3922 122.911 31.1706 122.283 31.1706C121.656 31.1706 121.143 31.3922 120.746 31.8353C120.34 32.2691 120.137 32.823 120.137 33.4969C120.137 34.1616 120.34 34.7201 120.746 35.1724ZM118.559 37.0556C117.58 36.0771 117.091 34.8909 117.091 33.4969C117.091 32.103 117.58 30.9167 118.559 29.9382C119.546 28.9504 120.788 28.4566 122.283 28.4566C123.77 28.4566 125.007 28.9504 125.994 29.9382C126.973 30.9167 127.462 32.103 127.462 33.4969C127.462 34.9001 126.973 36.0909 125.994 37.0695C125.016 38.048 123.779 38.5373 122.283 38.5373C120.788 38.5373 119.546 38.0434 118.559 37.0556ZM128.673 28.6504H133.131C134.248 28.6504 135.135 28.9458 135.79 29.5366C136.464 30.1275 136.801 30.8844 136.801 31.8076C136.801 32.7307 136.464 33.4877 135.79 34.0785C135.135 34.6693 134.248 34.9647 133.131 34.9647H131.65V38.3434H128.673V28.6504ZM131.65 32.8046H132.73C133.034 32.8046 133.279 32.7261 133.464 32.5692C133.658 32.403 133.754 32.1907 133.754 31.9322C133.754 31.6737 133.658 31.466 133.464 31.3091C133.27 31.1521 133.025 31.0737 132.73 31.0737H131.65V32.8046ZM56.1088 50.3434H50.9854V40.6504H55.9011C56.8058 40.6504 57.5443 40.8627 58.1166 41.2874C58.6982 41.7028 58.989 42.3167 58.989 43.1291C58.989 43.5999 58.8598 43.9922 58.6013 44.3061C58.3336 44.6292 58.0751 44.8507 57.8258 44.9707C58.2505 45.0538 58.6613 45.3308 59.0582 45.8016C59.4644 46.2631 59.6675 46.8401 59.6675 47.5324C59.6675 48.3725 59.3398 49.051 58.6844 49.568C58.0289 50.0849 57.1704 50.3434 56.1088 50.3434ZM53.9625 46.3416V47.9479H55.5272C55.7949 47.9479 56.0073 47.8786 56.1642 47.7402C56.3304 47.5925 56.4134 47.3986 56.4134 47.1586C56.4134 46.9186 56.3304 46.7247 56.1642 46.577C55.998 46.4201 55.7857 46.3416 55.5272 46.3416H53.9625ZM53.9625 42.9629V44.2645H55.4718C55.6749 44.2645 55.8411 44.2045 55.9703 44.0845C56.1088 43.9645 56.178 43.8168 56.178 43.6414C56.178 43.4383 56.1088 43.2768 55.9703 43.1568C55.8411 43.0275 55.6749 42.9629 55.4718 42.9629H53.9625ZM64.0868 47.1724C64.493 47.6063 65.0053 47.8232 65.6238 47.8232C66.2423 47.8232 66.7547 47.6063 67.1609 47.1724C67.567 46.7201 67.7701 46.1616 67.7701 45.4969C67.7701 44.823 67.567 44.2691 67.1609 43.8353C66.7639 43.3922 66.2516 43.1706 65.6238 43.1706C64.9961 43.1706 64.4837 43.3922 64.0868 43.8353C63.6806 44.2691 63.4775 44.823 63.4775 45.4969C63.4775 46.1616 63.6806 46.7201 64.0868 47.1724ZM61.899 49.0556C60.9204 48.0771 60.4312 46.8909 60.4312 45.4969C60.4312 44.103 60.9204 42.9167 61.899 41.9382C62.8867 40.9504 64.1283 40.4566 65.6238 40.4566C67.1101 40.4566 68.3471 40.9504 69.3349 41.9382C70.3134 42.9167 70.8027 44.103 70.8027 45.4969C70.8027 46.9001 70.3134 48.0909 69.3349 49.0695C68.3563 50.048 67.1193 50.5373 65.6238 50.5373C64.1283 50.5373 62.8867 50.0434 61.899 49.0556ZM75.3363 50.5373C73.8131 50.5373 72.5669 50.2326 71.5976 49.6234V46.8401C72.0222 47.1724 72.5346 47.4309 73.1346 47.6155C73.7439 47.8002 74.3439 47.8925 74.9347 47.8925C76.0425 47.8925 76.5964 47.6201 76.5964 47.0755C76.5964 46.6693 76.1902 46.4662 75.3778 46.4662H73.9377V44.2091H75.5301C76.1579 44.2091 76.4718 44.0291 76.4718 43.6691C76.4718 43.2537 76.0056 43.046 75.0732 43.046C73.9193 43.046 72.8669 43.286 71.916 43.766V41.232C72.9315 40.715 74.0854 40.4566 75.3778 40.4566C76.6241 40.4566 77.6118 40.7289 78.3411 41.2735C79.0704 41.809 79.435 42.4829 79.435 43.2952C79.435 44.2276 79.0473 44.8738 78.2719 45.2338C78.6873 45.4277 79.0242 45.7139 79.2827 46.0923C79.5412 46.4708 79.6704 46.9093 79.6704 47.4078C79.6704 48.3033 79.2781 49.0464 78.4934 49.6372C77.7088 50.2373 76.6564 50.5373 75.3363 50.5373ZM83.5882 50.3434H80.708V40.6504H83.6574L85.776 44.0984L87.9085 40.6504H90.8441V50.3434H87.9916V44.9153L86.6207 47.2278H85.0145L83.5882 44.9153V50.3434ZM95.6891 47.1724C96.0953 47.6063 96.6076 47.8232 97.2261 47.8232C97.8446 47.8232 98.357 47.6063 98.7631 47.1724C99.1693 46.7201 99.3724 46.1616 99.3724 45.4969C99.3724 44.823 99.1693 44.2691 98.7631 43.8353C98.3662 43.3922 97.8538 43.1706 97.2261 43.1706C96.5984 43.1706 96.086 43.3922 95.6891 43.8353C95.2829 44.2691 95.0798 44.823 95.0798 45.4969C95.0798 46.1616 95.2829 46.7201 95.6891 47.1724ZM93.5012 49.0556C92.5227 48.0771 92.0334 46.8909 92.0334 45.4969C92.0334 44.103 92.5227 42.9167 93.5012 41.9382C94.489 40.9504 95.7306 40.4566 97.2261 40.4566C98.7124 40.4566 99.9494 40.9504 100.937 41.9382C101.916 42.9167 102.405 44.103 102.405 45.4969C102.405 46.9001 101.916 48.0909 100.937 49.0695C99.9586 50.048 98.7216 50.5373 97.2261 50.5373C95.7306 50.5373 94.489 50.0434 93.5012 49.0556ZM105.682 50.3434H102.04L105.598 45.4L102.497 40.6504H105.945L108.257 44.5276V40.6504H111.151V44.5276L113.477 40.6504H116.898L113.782 45.4L117.341 50.3434H113.713L111.151 46.5078V50.3434H108.257V46.5078L105.682 50.3434ZM120.913 50.3434H117.936V40.6504H120.913V43.9322H123.876V40.6504H126.853V50.3434H123.876V46.5216H120.913V50.3434ZM131.7 47.1724C132.106 47.6063 132.618 47.8232 133.237 47.8232C133.855 47.8232 134.368 47.6063 134.774 47.1724C135.18 46.7201 135.383 46.1616 135.383 45.4969C135.383 44.823 135.18 44.2691 134.774 43.8353C134.377 43.3922 133.864 43.1706 133.237 43.1706C132.609 43.1706 132.097 43.3922 131.7 43.8353C131.294 44.2691 131.09 44.823 131.09 45.4969C131.09 46.1616 131.294 46.7201 131.7 47.1724ZM129.512 49.0556C128.533 48.0771 128.044 46.8909 128.044 45.4969C128.044 44.103 128.533 42.9167 129.512 41.9382C130.5 40.9504 131.741 40.4566 133.237 40.4566C134.723 40.4566 135.96 40.9504 136.948 41.9382C137.926 42.9167 138.416 44.103 138.416 45.4969C138.416 46.9001 137.926 48.0909 136.948 49.0695C135.969 50.048 134.732 50.5373 133.237 50.5373C131.741 50.5373 130.5 50.0434 129.512 49.0556ZM144.902 50.5373C143.314 50.5373 141.989 50.0711 140.928 49.1387C139.875 48.1971 139.349 46.9832 139.349 45.4969C139.349 44.0107 139.871 42.8013 140.914 41.869C141.948 40.9274 143.268 40.4566 144.874 40.4566C145.834 40.4566 146.651 40.6273 147.325 40.9689V43.7799C146.54 43.3552 145.751 43.1429 144.957 43.1429C144.219 43.1429 143.609 43.3691 143.129 43.8214C142.649 44.2645 142.409 44.823 142.409 45.4969C142.409 46.1893 142.658 46.757 143.157 47.2001C143.665 47.634 144.302 47.8509 145.068 47.8509C146.009 47.8509 146.808 47.6201 147.463 47.1586V50.0111C146.789 50.3619 145.936 50.5373 144.902 50.5373ZM148.324 43.2121V40.6504H156.84V43.2121H154.057V50.3434H151.08V43.2121H148.324ZM165.567 50.3434H157.881V40.6504H165.483V43.2121H160.859V44.0707H164.486V46.4247H160.859V47.7817H165.567V50.3434ZM169.219 50.3434H166.685V40.6504H169.565V45.4692L173.303 40.6504H175.754V50.3434H172.902V45.5662L169.219 50.3434ZM173.151 39.515C172.634 39.9581 171.997 40.1796 171.24 40.1796C170.483 40.1796 169.846 39.9581 169.329 39.515C168.812 39.0534 168.549 38.4395 168.54 37.6733H170.423C170.433 38.1718 170.7 38.421 171.226 38.421C171.734 38.421 171.997 38.1718 172.016 37.6733H173.927C173.908 38.4487 173.65 39.0626 173.151 39.515Z" fill="#08AEAD"/>
</svg>
