<svg width="16" height="16" viewBox="0 0 16 16" fill="none" xmlns="http://www.w3.org/2000/svg">
<path d="M15.1401 14.2L12.4735 11.5333C13.4274 10.3573 13.9526 8.89162 13.9626 7.37738C13.9726 5.86315 13.4668 4.39063 12.5284 3.20216C11.59 2.01369 10.275 1.1801 8.79972 0.838556C7.32447 0.497016 5.7769 0.667884 4.4117 1.32304C3.0465 1.9782 1.94501 3.0786 1.28851 4.44316C0.632013 5.80772 0.459623 7.35512 0.799711 8.8307C1.1398 10.3063 1.9721 11.6221 3.15965 12.5617C4.34719 13.5012 5.81921 14.0085 7.33345 14C8.87692 14.0042 10.3728 13.4662 11.5601 12.48L14.1935 15.1467L15.1401 14.2ZM7.33345 12.6667C6.27862 12.6667 5.24747 12.3539 4.37041 11.7678C3.49335 11.1818 2.80976 10.3488 2.4061 9.37431C2.00243 8.39977 1.89681 7.32742 2.1026 6.29285C2.30839 5.25828 2.81634 4.30798 3.56222 3.5621C4.3081 2.81622 5.25841 2.30826 6.29297 2.10248C7.32754 1.89669 8.39989 2.00231 9.37443 2.40597C10.349 2.80964 11.1819 3.49323 11.768 4.37029C12.354 5.24735 12.6668 6.2785 12.6668 7.33333C12.6668 8.74782 12.1049 10.1044 11.1047 11.1046C10.1045 12.1048 8.74794 12.6667 7.33345 12.6667Z" fill="#414041"/>
</svg>
